<svg xmlns="http://www.w3.org/2000/svg" viewBox="0 0 466.83 388.45"><defs><style>.cls-1,.cls-4{fill:#fff;}.cls-2,.cls-23{fill:none;stroke-miterlimit:10;}.cls-2{stroke:#5b8829;stroke-width:5px;}.cls-3,.cls-5{fill:#5b8829;}.cls-4,.cls-5,.cls-7{font-size:20.1px;}.cls-11,.cls-4,.cls-5,.cls-7,.cls-9{font-family:MyriadPro-Regular, Myriad Pro;}.cls-6{letter-spacing:0em;}.cls-7{fill:#dc3545;letter-spacing:0em;}.cls-8{letter-spacing:0em;}.cls-9{font-size:15.48px;}.cls-11,.cls-9{fill:#ced4da;}.cls-10{letter-spacing:-0.01em;}.cls-11{font-size:15.48px;}.cls-12{letter-spacing:0em;}.cls-13{letter-spacing:-0.04em;}.cls-14{letter-spacing:-0.01em;}.cls-15{letter-spacing:0em;}.cls-16{letter-spacing:-0.01em;}.cls-17{letter-spacing:0em;}.cls-18{letter-spacing:0.01em;}.cls-19{letter-spacing:0.01em;}.cls-20{letter-spacing:-0.01em;}.cls-21{letter-spacing:-0.01em;}.cls-22{letter-spacing:0em;}.cls-23{stroke:#ced4da;}</style></defs><g id="Layer_2" data-name="Layer 2"><g id="Layer_1-2" data-name="Layer 1"><rect class="cls-1" x="2.5" y="2.5" width="461.83" height="383.45"/><polygon class="cls-2" points="233.41 385.95 464.33 385.95 464.33 2.5 2.5 2.5 2.5 385.95 233.41 385.95"/><rect class="cls-3" x="333.96" y="21.64" width="109.15" height="33.94" rx="5.5"/><text class="cls-4" transform="translate(358.27 44.51)">Submit</text><text class="cls-5" transform="translate(32.21 44.51)">New <tspan class="cls-6" x="42.35" y="0">R</tspan><tspan x="53.24" y="0">ecipe</tspan></text><text class="cls-7" transform="translate(32.21 239.45)">R<tspan class="cls-8" x="10.89" y="0">ecipes:</tspan></text><text class="cls-9" transform="translate(42.21 107.81)"><tspan class="cls-10">A</tspan><tspan x="9.29" y="0">uthor Name</tspan></text><text class="cls-11" transform="translate(42.53 163.71)"><tspan class="cls-12">R</tspan><tspan x="8.39" y="0">ecipe</tspan><tspan class="cls-13" x="43.25" y="0"> </tspan><tspan class="cls-14" x="45.9" y="0">T</tspan><tspan class="cls-15" x="53.41" y="0">itle</tspan></text><text class="cls-11" transform="translate(42.53 287.53)"><tspan class="cls-16">A<tspan class="cls-17" x="9.29" y="0">utho</tspan><tspan class="cls-18" x="40.02" y="0">r</tspan><tspan class="cls-15" x="45.22" y="0">:</tspan></tspan><tspan class="cls-16" x="0" y="18.57">T</tspan><tspan x="7.51" y="18.57">itle:</tspan><tspan class="cls-19" x="0" y="37.14">I</tspan><tspan x="3.85" y="37.14">n</tspan><tspan class="cls-20" x="12.44" y="37.14">g</tspan><tspan class="cls-21" x="21" y="37.14">r</tspan><tspan x="25.91" y="37.14">edie</tspan><tspan class="cls-22" x="53.76" y="37.14">n</tspan><tspan x="62.29" y="37.14">ts: </tspan></text><rect class="cls-23" x="32.21" y="83.09" width="395.31" height="40.36" rx="6.73"/><rect class="cls-23" x="24.87" y="261.03" width="395.31" height="86.22" rx="6.73"/><rect class="cls-23" x="32.21" y="138.12" width="395.31" height="40.36" rx="7.49"/><path d="M139.1,276.94h6.35v.27h-6V282h5.67v.27H139.4v5.22h-.3Z"/><path d="M152,285.84a13,13,0,0,0,.08,1.69h-.3a13.12,13.12,0,0,1-.08-1.67,2.57,2.57,0,0,1-2.72,1.85c-1.81,0-2.51-1.07-2.51-2.14,0-1.61,1.25-2.27,3.34-2.27.85,0,1.35,0,1.89,0v-1.06c0-1.08-.45-2.12-2.22-2.12s-2.23.83-2.34,2h-.3c.06-1.08.66-2.24,2.65-2.24,1.79,0,2.51,1,2.51,2.3Zm-.3-2.25c-.51,0-1.13,0-1.91,0-2,0-3,.65-3,2,0,1.16.92,1.86,2.21,1.86,1.75,0,2.71-1.06,2.71-3.11Z"/><path d="M154.9,276.23v5.64a2.8,2.8,0,0,1,2.84-2c1.2,0,2.53.68,2.53,2.84v4.82H160v-4.78c0-1.49-.75-2.59-2.26-2.59-1.83,0-2.79,1.38-2.79,3.2v4.17h-.3v-11.3Z"/><path d="M167.73,285.84a13,13,0,0,0,.08,1.69h-.31a14,14,0,0,1-.07-1.67,2.58,2.58,0,0,1-2.72,1.85c-1.81,0-2.52-1.07-2.52-2.14,0-1.61,1.25-2.27,3.34-2.27.86,0,1.36,0,1.9,0v-1.06c0-1.08-.45-2.12-2.23-2.12s-2.22.83-2.33,2h-.3c.06-1.08.66-2.24,2.65-2.24,1.79,0,2.51,1,2.51,2.3Zm-.3-2.25c-.51,0-1.13,0-1.91,0-2,0-3,.65-3,2,0,1.16.92,1.86,2.21,1.86,1.75,0,2.71-1.06,2.71-3.11Z"/><path d="M176,276.23v9.51c0,.53,0,1.35,0,1.79h-.29c0-.26,0-1.08,0-1.88a2.68,2.68,0,0,1-2.83,2.06c-1.62,0-3.08-1.28-3.08-3.84s1.57-4,3.28-4a2.61,2.61,0,0,1,2.63,1.78v-5.42Zm-5.89,7.61c0,2.26,1.19,3.58,2.78,3.58,1.85,0,2.84-1.26,2.84-3.79,0-2.21-.87-3.47-2.69-3.47S170.08,281.74,170.08,283.84Z"/><path d="M139.1,295h3.41c1.9,0,3,.95,3,2.56a2.24,2.24,0,0,1-1.94,2.35,2.7,2.7,0,0,1,2.36,2.72c0,1.94-1.41,3-3.5,3H139.1Zm3.47,4.79c1.58,0,2.64-.76,2.64-2.22,0-1.61-1.16-2.3-2.83-2.3h-3v4.52Zm-3.17,5.53h3c1.67,0,3.25-.63,3.25-2.68,0-1.71-1.33-2.58-3.1-2.58H139.4Z"/><path d="M153.38,303.54c0,.73,0,1.71,0,2h-.3c0-.1,0-1.11,0-1.85a2.63,2.63,0,0,1-2.68,2c-1,0-2.58-.48-2.58-2.81v-4.81h.3V303a2.18,2.18,0,0,0,2.3,2.41c1.55,0,2.66-1.06,2.66-3.24v-4.1h.32Z"/><path d="M155.93,300.66c0-1.64,0-2.09,0-2.55h.29c0,.37,0,1.23,0,2.16a3.27,3.27,0,0,1,2.82-2.35v.31a3.23,3.23,0,0,0-2.82,3.32v4h-.31Z"/><path d="M165.91,305.33c0,2.39-.75,3.74-3.19,3.74a2.57,2.57,0,0,1-2.83-2.15h.3a2.35,2.35,0,0,0,2.54,1.88c2.25,0,2.88-1.25,2.88-3.52v-1.65a2.6,2.6,0,0,1-2.74,1.95c-1.76,0-3.11-1.38-3.11-3.73,0-2.62,1.61-3.93,3.25-3.93a2.46,2.46,0,0,1,2.61,1.83c0-.83,0-1.54,0-1.64h.28c0,.18,0,1.05,0,2Zm-5.84-3.49c0,2.21,1.27,3.46,2.82,3.46,2.24,0,2.73-1.78,2.73-3.6,0-1.49-.24-3.49-2.63-3.49C161.2,298.21,160.07,299.73,160.07,301.84Z"/><path d="M168.24,301.76c0,2.33,1.16,3.7,2.78,3.7a2.63,2.63,0,0,0,2.62-1.77h.3a2.89,2.89,0,0,1-2.9,2c-2.3,0-3.1-2.06-3.1-3.91,0-2.39,1.29-3.9,3.13-3.9,2.32,0,3,2,3,3.47a2.3,2.3,0,0,1,0,.37Zm5.58-.27c0-1.8-.9-3.29-2.77-3.29-1.65,0-2.7,1.36-2.79,3.29Z"/><path d="M176.18,300.66c0-1.64,0-2.09,0-2.55h.29c0,.37,0,1.23,0,2.16a3.27,3.27,0,0,1,2.82-2.35v.31a3.23,3.23,0,0,0-2.82,3.32v4h-.31Z"/><path d="M139.1,313.05h3.41c1.9,0,3,.94,3,2.55a2.23,2.23,0,0,1-1.94,2.35,2.71,2.71,0,0,1,2.36,2.72c0,1.94-1.41,3-3.5,3H139.1Zm3.47,4.78c1.58,0,2.64-.75,2.64-2.21,0-1.61-1.16-2.3-2.83-2.3h-3v4.51Zm-3.17,5.54h3c1.67,0,3.25-.63,3.25-2.68,0-1.72-1.33-2.59-3.1-2.59H139.4Z"/><path d="M147.87,318.72c0-1.64,0-2.09,0-2.56h.28c0,.38,0,1.23,0,2.17A3.28,3.28,0,0,1,151,316v.3a3.25,3.25,0,0,0-2.83,3.33v4h-.3Z"/><path d="M152.05,319.82c0,2.33,1.16,3.7,2.79,3.7a2.64,2.64,0,0,0,2.61-1.78h.31a2.9,2.9,0,0,1-2.91,2.05c-2.3,0-3.1-2.06-3.1-3.91,0-2.4,1.3-3.9,3.13-3.9,2.32,0,3,2,3,3.46,0,.17,0,.21,0,.38Zm5.58-.28c0-1.8-.9-3.29-2.76-3.29-1.66,0-2.71,1.37-2.8,3.29Z"/><path d="M164.9,322a13,13,0,0,0,.08,1.69h-.3a13.12,13.12,0,0,1-.08-1.67,2.58,2.58,0,0,1-2.72,1.85c-1.81,0-2.52-1.07-2.52-2.14,0-1.61,1.25-2.27,3.34-2.27h1.9v-1.05c0-1.08-.45-2.12-2.23-2.12s-2.22.83-2.33,2h-.3c.06-1.08.66-2.24,2.65-2.24,1.79,0,2.51,1,2.51,2.3Zm-.3-2.25c-.51,0-1.13,0-1.91,0-2,0-3,.65-3,2,0,1.16.92,1.86,2.21,1.86,1.75,0,2.71-1.07,2.71-3.11Z"/><path d="M173.15,312.34v9.51c0,.52,0,1.35,0,1.79h-.28c0-.26,0-1.09,0-1.88a2.69,2.69,0,0,1-2.83,2.06c-1.63,0-3.09-1.28-3.09-3.84,0-2.71,1.57-4,3.28-4a2.64,2.64,0,0,1,2.64,1.77v-5.41Zm-5.9,7.61c0,2.26,1.19,3.58,2.78,3.58,1.85,0,2.85-1.26,2.85-3.79,0-2.21-.88-3.47-2.7-3.47S167.25,317.85,167.25,320Z"/><path d="M184.29,322a13,13,0,0,0,.08,1.69h-.3A13.12,13.12,0,0,1,184,322a2.57,2.57,0,0,1-2.72,1.85c-1.81,0-2.51-1.07-2.51-2.14,0-1.61,1.25-2.27,3.34-2.27H184v-1.05c0-1.08-.45-2.12-2.22-2.12s-2.23.83-2.34,2h-.3c.06-1.08.67-2.24,2.65-2.24,1.79,0,2.51,1,2.51,2.3Zm-.3-2.25c-.51,0-1.13,0-1.91,0-2,0-3,.65-3,2,0,1.16.92,1.86,2.22,1.86,1.74,0,2.7-1.07,2.7-3.11Z"/><path d="M186.91,318c0-.74,0-1.65,0-1.82h.3c0,.35,0,1,0,1.88a2.88,2.88,0,0,1,2.85-2.06c1.24,0,2.52.72,2.52,2.89v4.77h-.31V318.9c0-1.49-.72-2.63-2.26-2.63-1.79,0-2.8,1.5-2.8,3.26v4.11h-.3Z"/><path d="M200.83,312.34v9.51c0,.52,0,1.35,0,1.79h-.28c0-.26,0-1.09,0-1.88a2.69,2.69,0,0,1-2.83,2.06c-1.63,0-3.09-1.28-3.09-3.84,0-2.71,1.57-4,3.28-4a2.62,2.62,0,0,1,2.64,1.77v-5.41Zm-5.9,7.61c0,2.26,1.19,3.58,2.78,3.58,1.85,0,2.85-1.26,2.85-3.79,0-2.21-.88-3.47-2.7-3.47S194.93,317.85,194.93,320Z"/><path d="M215,320.84a3.91,3.91,0,0,1-4,3c-3.07,0-4.55-2.42-4.55-5.39s1.48-5.5,4.64-5.5A3.8,3.8,0,0,1,215,316h-.32a3.54,3.54,0,0,0-3.6-2.82c-3,0-4.33,2.44-4.33,5.22s1.31,5.1,4.26,5.1a3.64,3.64,0,0,0,3.68-2.66Z"/><path d="M217.45,312.34V318a2.81,2.81,0,0,1,2.85-2c1.2,0,2.52.68,2.52,2.84v4.82h-.31v-4.79c0-1.49-.75-2.58-2.26-2.58-1.83,0-2.8,1.38-2.8,3.2v4.17h-.3v-11.3Z"/><path d="M225.44,312.34h.3v1.37h-.3Zm0,3.82h.3v7.48h-.3Z"/><path d="M233.78,321.61a2.73,2.73,0,0,1-2.85,2.21c-2,0-3.16-1.51-3.16-3.91S229.1,316,231,316a2.72,2.72,0,0,1,2.77,2.27h-.32a2.4,2.4,0,0,0-2.48-2c-1.93,0-2.89,1.72-2.89,3.66s.95,3.64,2.86,3.64a2.5,2.5,0,0,0,2.53-1.94Z"/><path d="M236.06,320.16l4.4-4h.42l-3.42,3.1c1.12,1.31,2.73,3.14,3.84,4.38h-.42c-.94-1.07-2.61-3-3.64-4.2l-1.18,1.05v3.15h-.3v-11.3h.3Z"/><path d="M242.4,319.82c0,2.33,1.15,3.7,2.78,3.7a2.66,2.66,0,0,0,2.62-1.78h.3a2.89,2.89,0,0,1-2.9,2.05c-2.31,0-3.1-2.06-3.1-3.91,0-2.4,1.29-3.9,3.13-3.9,2.31,0,3,2,3,3.46,0,.17,0,.21,0,.38Zm5.58-.28c0-1.8-.9-3.29-2.77-3.29-1.66,0-2.71,1.37-2.8,3.29Z"/><path d="M250.34,318c0-.74,0-1.65,0-1.82h.3c0,.35,0,1,0,1.88a2.88,2.88,0,0,1,2.84-2.06c1.25,0,2.53.72,2.53,2.89v4.77h-.31V318.9c0-1.49-.73-2.63-2.26-2.63-1.79,0-2.8,1.5-2.8,3.26v4.11h-.3Z"/></g></g></svg>