<svg xmlns="http://www.w3.org/2000/svg" viewBox="0 0 218.41 211.19"><defs><style>.cls-1{fill:#e6e6e6;}.cls-2{fill:#fdaf42;}.cls-3{fill:#00d5be;}.cls-4{fill:#ccc;}.cls-5{fill:none;stroke:#3f3f3f;stroke-miterlimit:10;}.cls-6{fill:#f2f2f2;}</style></defs><g id="Layer_2" data-name="Layer 2"><g id="Layer_1-2" data-name="Layer 1"><polygon class="cls-1" points="104.35 84.62 135.96 52.76 150.88 52.76 150.88 52.26 135.75 52.26 135.68 52.33 104 84.27 104.35 84.62"/><rect class="cls-2" x="169.11" y="39.68" width="36.62" height="3.26"/><path class="cls-1" d="M164.65,45H156.9V37.25h7.75Zm-7.25-.5h6.75V37.76H157.4Z"/><rect class="cls-2" x="169.11" y="50.56" width="36.62" height="3.26"/><path class="cls-1" d="M164.65,55.89H156.9V48.13h7.75Zm-7.25-.5h6.75V48.63H157.4Z"/><rect class="cls-3" x="169.11" y="61.44" width="36.62" height="3.26"/><path class="cls-1" d="M164.65,66.76H156.9V59h7.75Zm-7.25-.5h6.75V59.51H157.4Z"/><path id="bec063ed-0fa9-413a-bd83-d8526fa41b8c" class="cls-2" d="M96.72,108.84,105,123.1l8.23,14.25H80.26l8.23-14.25Z"/><rect id="aa6e6c0d-ca3b-4989-ae08-5d6fb21b7d28" class="cls-1" x="15.43" y="80.84" width="34.52" height="34.52"/><circle id="e644b8cb-fae5-4de8-b33a-50bfc45133bc" class="cls-2" cx="74.69" cy="36.7" r="22.15"/><path id="a646102d-3f95-413e-a731-a5030e030d8b" class="cls-4" d="M94.62,73.68a3.67,3.67,0,1,1,3.67,3.66A3.67,3.67,0,0,1,94.62,73.68Zm.61,0a3.06,3.06,0,1,0,3.06-3.06A3.05,3.05,0,0,0,95.23,73.68Z"/><path id="a7867f82-9da8-49b7-a62f-5fc2df52f7dd" class="cls-4" d="M63.06,137.44l-5.39-5.78,5.78-5.4,5.4,5.79Zm-4.53-5.75,4.56,4.89L68,132l-4.57-4.9Z"/><path id="abfd432a-addf-48b7-a638-56871f84cdda" class="cls-4" d="M18.5,55.15l-4.39-4.71,4.7-4.39,4.4,4.7Zm-3.7-4.69,3.72,4,4-3.72-3.72-4Z"/><path id="b4b6c2e3-9a65-466b-808f-faa311f7d0ed" class="cls-5" d="M80.19,61.6a30.55,30.55,0,1,1,30.54-30.55A30.55,30.55,0,0,1,80.19,61.6Zm0-60.49a29.94,29.94,0,1,0,29.93,29.94A29.93,29.93,0,0,0,80.19,1.11Z"/><rect id="f21400a3-3aa1-44f2-adc5-de8006399ef9" class="cls-5" x="48.6" y="62.85" width="18.22" height="0.61" transform="translate(-24.21 87.82) rotate(-64.34)"/><rect id="fdf13e27-5b88-4b47-a548-6eba64ef8ea7" class="cls-5" x="76.49" y="83.01" width="0.61" height="39.52" transform="translate(-50.14 121.39) rotate(-61.58)"/><path id="ec996080-b25c-43f9-95b1-17d83c771fa1" class="cls-5" d="M59.72,115.66H15.12V71.06h44.6Zm-44-.61H59.11V71.68H15.73Z"/><path id="e64eb5c0-2762-4bb4-99c9-e384d48b09ae" class="cls-5" d="M125.86,137.66H79.73l23.06-39.95Zm-45.08-.61h44l-22-38.12Z"/><rect id="b99807fe-d1e7-4c81-968c-d37ef9c7f61f" class="cls-1" y="210.06" width="218.41" height="0.61"/><path id="af6ca119-d97b-47e3-8175-f2ef9a50390c" class="cls-1" d="M63,191a9.55,9.55,0,0,0,9.26-1.63c3.25-2.72,4.27-7.21,5.09-11.36l2.45-12.29-5.12,3.53c-3.69,2.54-7.46,5.16-10,8.83s-3.67,8.7-1.62,12.68"/><path id="af7a4949-e0bd-4368-90b0-825d65eef9dd" class="cls-6" d="M63.81,206.74c-.64-4.7-1.31-9.46-.85-14.22a22.34,22.34,0,0,1,4.31-11.71,19.5,19.5,0,0,1,5-4.54c.5-.31,1,.48.46.79a18.52,18.52,0,0,0-7.33,8.85,29.72,29.72,0,0,0-1.58,12.8c.17,2.6.52,5.2.88,7.78a.5.5,0,0,1-.32.57.47.47,0,0,1-.57-.32Z"/><path id="aa567de9-de23-4828-818f-c81c945c4442" class="cls-1" d="M106.52,200.26a6.78,6.78,0,0,0,6.25,2.33c3-.51,5.19-2.88,7.19-5.13l5.9-6.64-4.4.32c-3.16.24-6.41.49-9.29,1.82s-5.36,4-5.53,7.17"/><path id="fe38c075-c327-4996-87fc-6abec6d8ced7" class="cls-6" d="M101.45,209.52a35.48,35.48,0,0,1,3.68-7.24,12.77,12.77,0,0,1,5.5-4.52,11,11,0,0,1,3.76-.78.26.26,0,0,1,0,.52,10.58,10.58,0,0,0-6.15,2.23,17,17,0,0,0-4.47,5.84c-.67,1.33-1.24,2.71-1.81,4.08a.26.26,0,1,1-.51-.13Z"/><path id="ae9d33bb-edce-455d-ba46-f884f02ee286" class="cls-1" d="M68.46,199.19a7,7,0,0,0,6.15,3.18c3.11-.15,5.71-2.32,8-4.38l6.91-6.11L85,191.66c-3.29-.16-6.67-.3-9.8.71s-6,3.46-6.6,6.7"/><path id="f4a10cc1-a745-4bdf-8c47-a58c703e8c56" class="cls-6" d="M62,209.44c3.1-5.5,6.71-11.6,13.14-13.56a14.78,14.78,0,0,1,5.53-.57c.59.05.44,1-.14.91a13.64,13.64,0,0,0-8.83,2.33,23.1,23.1,0,0,0-6.06,6.55c-1,1.53-1.91,3.12-2.8,4.71C62.54,210.32,61.7,210,62,209.44Z"/><path id="e6c92f99-e819-44b3-a3ab-322ae3ae9c0f" class="cls-1" d="M7.17,199.7a6.93,6.93,0,0,0,6.71-1.18c2.35-2,3.08-5.21,3.68-8.22l1.77-8.89L15.62,184c-2.66,1.84-5.39,3.73-7.24,6.39s-2.65,6.3-1.17,9.18"/><path id="a52ffbd1-05e9-4477-9f5c-0a49e3800732" class="cls-6" d="M7.49,210.47A36.36,36.36,0,0,1,7,202.2a13.13,13.13,0,0,1,2.51-6.82,11.23,11.23,0,0,1,2.91-2.63c.29-.19.56.27.27.46a10.79,10.79,0,0,0-4.27,5.14,17.45,17.45,0,0,0-.91,7.45c.09,1.52.3,3,.51,4.53a.29.29,0,0,1-.19.33.27.27,0,0,1-.33-.19Z"/><path id="a0fb9511-7a08-40c5-84ea-69c7b1520cf5" class="cls-5" d="M35.12,210.5c-.08-.13-2-3.31-2.64-9.89-.6-6.05-.21-16.24,5.07-30.45,10-26.93-2.31-48.65-2.43-48.87l.61-.35a53.71,53.71,0,0,1,5.08,14.41,62.9,62.9,0,0,1-2.6,35.05c-10,26.88-2.56,39.61-2.49,39.73Z"/><circle id="f311804e-8539-4d4f-8733-0b334c90657a" class="cls-2" cx="45.61" cy="132" r="4.57"/><circle id="a6573fda-74df-4cf8-bcdf-8c67e75bc2cf" class="cls-3" cx="32.26" cy="167.47" r="4.57"/><path id="ac75699b-0dec-44f0-aa90-11495e5daa36" class="cls-1" d="M37.46,210.36s-3.9-9.59,7.79-16.78Z"/><path id="f26d9f94-3dcd-492b-9651-88d3329d1691" class="cls-1" d="M32.66,210.19s-1.18-6.84-10.38-6.78Z"/><path id="ecf71195-8595-47d1-9f0d-85506c4dd5f7" class="cls-4" d="M43.3,154.57A3.67,3.67,0,1,1,47,158.24,3.66,3.66,0,0,1,43.3,154.57Zm.61,0a3.06,3.06,0,1,0,3.06-3A3.06,3.06,0,0,0,43.91,154.57Z"/><path id="a4f0274e-f5b3-4a0e-a250-2f78ed178189" class="cls-4" d="M32.26,143.26a3.67,3.67,0,1,1,3.67,3.66A3.67,3.67,0,0,1,32.26,143.26Zm.61,0a3.06,3.06,0,1,0,3.06-3.06A3.06,3.06,0,0,0,32.87,143.26Z"/></g></g></svg>