<svg xmlns="http://www.w3.org/2000/svg" viewBox="0 0 2132.42 1162.85"><defs><style>.cls-1{fill:#191d21;}.cls-2{fill:#666768;}.cls-3,.cls-4,.cls-5,.cls-6{fill:none;stroke-miterlimit:10;}.cls-3{stroke:#666768;}.cls-4,.cls-5,.cls-6{stroke:#717272;}.cls-4{stroke-width:3px;}.cls-6{stroke-width:4px;}</style></defs><g id="Layer_2" data-name="Layer 2"><g id="Layer_1-2" data-name="Layer 1"><rect class="cls-1" x="0.54" width="2131.88" height="1162.85"/><path class="cls-2" d="M132.5,613.69c0,89.84-49.74,168.56-124.32,212.38l-1,.61-1.08.62H.54V397a259.74,259.74,0,0,1,56.81,41.67l.55.53C104,484.14,132.5,545.74,132.5,613.69Z"/><path class="cls-3" d="M164.46,614.78c0,103.55-61.8,194.29-154.47,244.8l-1.29.71L7.36,861H.5V365a322.7,322.7,0,0,1,70.59,48l.68.61C129.1,465.44,164.46,536.45,164.46,614.78Z"/><polyline class="cls-3" points="1865.12 1025.35 1866.94 1005.26 1891.41 999.06 1895.42 976.78 1915.84 973.11 1920.61 951.59 1941.04 947.91 1943.95 926.73 1966.99 923.48 1970.24 900.44 1995.47 895 1998.72 871.96 2023.95 866.52"/><polyline class="cls-3" points="1892.43 1048.29 1894.25 1028.2 1918.72 1022 1922.73 999.72 1943.16 996.04 1947.93 974.52 1968.35 970.85 1971.26 949.66 1994.31 946.41 1997.55 923.37 2022.79 917.93 2026.03 894.89 2051.27 889.45"/><circle class="cls-3" cx="2002.5" cy="190" r="4.95"/><circle class="cls-3" cx="2002.5" cy="218" r="4.95"/><circle class="cls-3" cx="2002.5" cy="246" r="4.95"/><circle class="cls-3" cx="2002.5" cy="274" r="4.95"/><circle class="cls-3" cx="2002.5" cy="302" r="4.95"/><circle class="cls-3" cx="2002.5" cy="330" r="4.95"/><circle class="cls-3" cx="2002.5" cy="358" r="4.95"/><circle class="cls-3" cx="2002.5" cy="386" r="4.95"/><circle class="cls-3" cx="2002.5" cy="414" r="4.95"/><circle class="cls-3" cx="1942.5" cy="190" r="4.95"/><circle class="cls-3" cx="1942.5" cy="218" r="4.95"/><circle class="cls-3" cx="1942.5" cy="246" r="4.95"/><circle class="cls-3" cx="1942.5" cy="274" r="4.95"/><circle class="cls-3" cx="1942.5" cy="302" r="4.95"/><circle class="cls-3" cx="1942.5" cy="330" r="4.95"/><circle class="cls-3" cx="1942.5" cy="358" r="4.95"/><circle class="cls-3" cx="1942.5" cy="386" r="4.95"/><circle class="cls-3" cx="1942.5" cy="414" r="4.95"/><circle class="cls-3" cx="1882.5" cy="190" r="4.95"/><circle class="cls-3" cx="1882.5" cy="218" r="4.95"/><circle class="cls-3" cx="1882.5" cy="246" r="4.95"/><circle class="cls-3" cx="1882.5" cy="274" r="4.95"/><circle class="cls-3" cx="1882.5" cy="302" r="4.95"/><circle class="cls-3" cx="1882.5" cy="330" r="4.95"/><circle class="cls-3" cx="1882.5" cy="358" r="4.95"/><circle class="cls-3" cx="1882.5" cy="386" r="4.95"/><circle class="cls-3" cx="1882.5" cy="414" r="4.95"/><circle class="cls-3" cx="378.5" cy="920" r="4.95"/><circle class="cls-3" cx="406.5" cy="920" r="4.95"/><circle class="cls-3" cx="434.5" cy="920" r="4.95"/><circle class="cls-3" cx="462.5" cy="920" r="4.95"/><circle class="cls-3" cx="490.5" cy="920" r="4.95"/><circle class="cls-3" cx="518.5" cy="920" r="4.95"/><circle class="cls-3" cx="546.5" cy="920" r="4.95"/><circle class="cls-3" cx="574.5" cy="920" r="4.95"/><circle class="cls-3" cx="602.5" cy="920" r="4.95"/><circle class="cls-3" cx="378.5" cy="980" r="4.95"/><circle class="cls-3" cx="406.5" cy="980" r="4.95"/><circle class="cls-3" cx="434.5" cy="980" r="4.95"/><circle class="cls-3" cx="462.5" cy="980" r="4.95"/><circle class="cls-3" cx="490.5" cy="980" r="4.95"/><circle class="cls-3" cx="518.5" cy="980" r="4.95"/><circle class="cls-3" cx="546.5" cy="980" r="4.95"/><circle class="cls-3" cx="574.5" cy="980" r="4.95"/><circle class="cls-3" cx="602.5" cy="980" r="4.95"/><circle class="cls-3" cx="378.5" cy="1040" r="4.95"/><circle class="cls-3" cx="406.5" cy="1040" r="4.95"/><circle class="cls-3" cx="434.5" cy="1040" r="4.95"/><circle class="cls-3" cx="462.5" cy="1040" r="4.95"/><circle class="cls-3" cx="490.5" cy="1040" r="4.95"/><circle class="cls-3" cx="518.5" cy="1040" r="4.95"/><circle class="cls-3" cx="546.5" cy="1040" r="4.95"/><circle class="cls-3" cx="574.5" cy="1040" r="4.95"/><circle class="cls-3" cx="602.5" cy="1040" r="4.95"/><rect class="cls-4" x="124.64" y="303.42" width="21.58" height="21.58"/><rect class="cls-5" x="230.64" y="334.42" width="21.58" height="21.58"/><rect class="cls-6" x="113.64" y="155.42" width="50.61" height="50.61"/></g></g></svg>