<svg xmlns="http://www.w3.org/2000/svg" viewBox="0 0 2132.58 1165"><defs><style>.cls-1{fill:#181b1e;}.cls-2,.cls-4,.cls-6,.cls-7,.cls-9{fill:none;stroke-miterlimit:10;}.cls-2,.cls-6,.cls-7{stroke:#717272;}.cls-2,.cls-4{stroke-width:0.5px;}.cls-3,.cls-5{fill:#666768;}.cls-4{stroke:#464747;}.cls-5{opacity:0.38;}.cls-6{stroke-width:6px;}.cls-7{stroke-width:4px;}.cls-8{fill:#717272;}.cls-9{stroke:#fdaf42;stroke-linecap:round;stroke-width:30px;}</style></defs><g id="Layer_2" data-name="Layer 2"><g id="Layer_1-2" data-name="Layer 1"><rect class="cls-1" x="0.54" width="2131.89" height="1162.85"/><path class="cls-2" d="M163.47,138.63a56,56,0,0,1-68.08,88.89Z"/><path class="cls-2" d="M173.38,217.33a57.12,57.12,0,0,0,10.16-49.56L94.86,227.31l-.57.74C118.75,247,154.16,242.17,173.38,217.33Z"/><circle class="cls-3" cx="139.97" cy="169.58" r="9.15"/><path class="cls-2" d="M1947.78,806.63c38.64,32.94,45.73,94.15,15.83,136.72-29.71,42.32-84.8,50.29-123.4,18Z"/><path class="cls-2" d="M1963.43,943.61c17.94-25.54,22.93-57.55,16-86.26L1839.38,961l-.9,1.28C1877.12,995.21,1933.06,986.85,1963.43,943.61Z"/><ellipse class="cls-3" cx="1910.65" cy="860.51" rx="14.46" ry="15.93"/><path class="cls-3" d="M112.16,942.92c0,93.4-41.48,175.25-103.67,220.81l-.87.63c-.3.22-.6.44-.9.64H.59v-.64H0V815.65L.59,815V716.6A226.62,226.62,0,0,1,49.49,761c.16.18.31.36.46.55C88.43,808.23,112.16,872.27,112.16,942.92Z"/><path class="cls-4" d="M406.69,368.08,244.74,545.36c-45.18-48.46-45.55-127.43-.82-176.38q3.72-4.07,7.68-7.69c38.27-35,92.74-38.66,134.42-10.84A117.51,117.51,0,0,1,406.69,368.08Z"/><polygon class="cls-4" points="910.23 1163.09 2.35 1163.09 2.35 814.38 2.94 813.73 51.84 759.69 258.43 531.44 341.93 439.19 421.64 351.12 617.5 676.62 909.84 1162.45 910.23 1163.09"/><path class="cls-5" d="M386,350.45c-13.87,35.81-49.78,56.9-86,48.27-21-5-38-19-48.39-37.43C289.87,326.29,344.34,322.63,386,350.45Z"/><polyline class="cls-4" points="342.6 437.94 342.75 438.19 554.64 796.76 770.16 1161.45 771.29 1163.36 9.89 1162.73 3.76 1162.73 3.76 1161.45 4.35 813.38"/><polyline class="cls-2" points="791.38 309.69 806.87 296.77 828.56 309.69 847.15 296.77 864.19 308.61 882.78 296.77 899.82 308.61 916.86 295.69 935.45 309.69 954.04 295.69 975.73 309.69 994.32 295.69 1016.01 309.69"/><polyline class="cls-2" points="794.48 345.22 809.97 332.3 831.66 345.22 850.25 332.3 867.29 344.14 885.88 332.3 902.92 344.14 919.96 331.22 938.55 345.22 957.14 331.22 978.83 345.22 997.42 331.22 1019.11 345.22"/><polyline class="cls-2" points="1419.06 760.16 1431.62 747.24 1449.2 760.16 1464.28 747.24 1478.09 759.08 1493.17 747.24 1506.99 759.08 1520.8 746.16 1535.88 760.16 1550.95 746.16 1568.54 760.16 1583.61 746.16 1601.2 760.16"/><polyline class="cls-2" points="1421.57 795.69 1434.13 782.77 1451.71 795.69 1466.79 782.77 1480.61 794.61 1495.68 782.77 1509.5 794.61 1523.32 781.69 1538.39 795.69 1553.46 781.69 1571.05 795.69 1586.12 781.69 1603.71 795.69"/><polyline class="cls-2" points="1991.91 682.39 2004.48 669.47 2022.06 682.39 2037.13 669.47 2050.95 681.32 2066.02 669.47 2079.85 681.32 2093.66 668.39 2108.74 682.39 2123.81 668.39 2132.42 675.25"/><polyline class="cls-2" points="1994.42 717.92 2006.99 705 2024.57 717.92 2039.64 705 2053.47 716.85 2068.54 705 2082.36 716.85 2096.17 703.93 2111.24 717.92 2126.32 703.93 2132.42 708.78"/><rect class="cls-6" x="1815.57" y="289.82" width="48.72" height="48.72"/><rect class="cls-7" x="1799.96" y="274.21" width="79.92" height="79.92"/><rect class="cls-6" x="1102.76" y="590.01" width="33.7" height="33.7"/><rect class="cls-7" x="1091.96" y="579.21" width="55.29" height="55.29"/><rect class="cls-7" x="977.98" y="817.29" width="37.58" height="40.73"/><rect class="cls-7" x="1246.77" y="826.51" width="21.53" height="21.53"/><polygon class="cls-4" points="359.39 1163.09 690.6 533.12 1026.5 1163.09 359.39 1163.09"/><line class="cls-4" x1="662.5" y1="979" x2="830.63" y2="795.74"/><line class="cls-4" x1="693.5" y1="1032" x2="860.31" y2="850.65"/><line class="cls-4" x1="725.5" y1="1086" x2="889.67" y2="906.65"/><circle class="cls-2" cx="280.6" cy="925.13" r="4.95"/><circle class="cls-2" cx="280.6" cy="953.13" r="4.95"/><circle class="cls-2" cx="280.6" cy="981.13" r="4.95"/><circle class="cls-2" cx="280.6" cy="1009.13" r="4.95"/><circle class="cls-2" cx="280.6" cy="1037.13" r="4.95"/><circle class="cls-2" cx="280.6" cy="1065.13" r="4.95"/><circle class="cls-2" cx="280.6" cy="1093.13" r="4.95"/><circle class="cls-2" cx="280.6" cy="1121.13" r="4.95"/><circle class="cls-2" cx="280.6" cy="1149.13" r="4.95"/><circle class="cls-2" cx="220.6" cy="925.13" r="4.95"/><circle class="cls-2" cx="220.6" cy="953.13" r="4.95"/><circle class="cls-2" cx="220.6" cy="981.13" r="4.95"/><circle class="cls-2" cx="220.6" cy="1009.13" r="4.95"/><circle class="cls-2" cx="220.6" cy="1037.13" r="4.95"/><circle class="cls-2" cx="220.6" cy="1065.13" r="4.95"/><circle class="cls-2" cx="220.6" cy="1093.13" r="4.95"/><circle class="cls-2" cx="220.6" cy="1121.13" r="4.95"/><circle class="cls-2" cx="220.6" cy="1149.13" r="4.95"/><circle class="cls-2" cx="160.6" cy="925.13" r="4.95"/><circle class="cls-2" cx="160.6" cy="953.13" r="4.95"/><circle class="cls-2" cx="160.6" cy="981.13" r="4.95"/><circle class="cls-2" cx="160.6" cy="1009.13" r="4.95"/><circle class="cls-2" cx="160.6" cy="1037.13" r="4.95"/><circle class="cls-2" cx="160.6" cy="1065.13" r="4.95"/><circle class="cls-2" cx="160.6" cy="1093.13" r="4.95"/><circle class="cls-2" cx="160.6" cy="1121.13" r="4.95"/><circle class="cls-2" cx="160.6" cy="1149.13" r="4.95"/><path class="cls-8" d="M1468.74,586.21a16.27,16.27,0,0,1-11.13-4.32l-73.81-69a14,14,0,0,1-.14-20.6.86.86,0,0,0,.14-.13l73.51-68.74a17,17,0,0,1,22.93.07h0a14.87,14.87,0,0,1,0,21.79L1425.62,497a8.31,8.31,0,0,0,0,12.18L1480,560.6a14.43,14.43,0,0,1,0,21.2,16.29,16.29,0,0,1-11.23,4.41Z"/><path class="cls-8" d="M1640.52,592.87a15.34,15.34,0,0,1-10.86-26.21L1682.33,514a8.81,8.81,0,0,0,0-12.46l-53-53a15.76,15.76,0,0,1,0-22.3h0a15.81,15.81,0,0,1,22.24-.07l71.27,70.37a14.92,14.92,0,0,1,.13,21.1l-.13.13-71.56,70.66A15.33,15.33,0,0,1,1640.52,592.87Z"/><line class="cls-9" x1="1584.48" y1="423.54" x2="1523.96" y2="594"/></g></g></svg>