<svg xmlns="http://www.w3.org/2000/svg" viewBox="0 0 665.66 430.88"><defs><style>.cls-1{fill:#3f3d56;}.cls-2{fill:#ccc;}.cls-3{fill:#f9a826;}.cls-4{fill:#00d5be;}.cls-5{fill:#e6e6e6;}.cls-6{fill:#f0f0f0;}.cls-7{fill:#fff;}.cls-8{fill:#cacaca;}</style></defs><g id="Layer_2" data-name="Layer 2"><g id="e7334088-53de-4589-99a2-090044ddfc90"><path class="cls-1" d="M386.27,118V70.61h2V118a3,3,0,0,0,3,3H641.16a3,3,0,0,0,3-3V70.94h2V118a5,5,0,0,1-5,5H391.27A5,5,0,0,1,386.27,118Z"/><rect class="cls-1" x="300.68" y="70.32" width="364.98" height="1.24"/><circle id="ac293633-0933-4e21-a8aa-bc27ca4fbccc" class="cls-1" cx="594.42" cy="121.34" r="17.2"/><circle id="a0cd768d-b738-4d4b-9ab3-78ab535c7573" class="cls-2" cx="504.23" cy="121.34" r="17.2"/><circle id="b9eb3d2e-31e0-4fe2-be5c-79abb86bc227" class="cls-3" cx="547.93" cy="70.78" r="17.2"/><circle id="aa04baac-fce0-420a-b86a-4a97f3079928" class="cls-3" cx="303.04" cy="70.78" r="17.2"/><circle id="e92cf92c-058e-415c-ba96-766a57ee18d9" class="cls-3" cx="387.27" cy="70.78" r="17.2"/><rect id="ac5bf8cc-574d-4509-9338-881c836fd832" class="cls-4" x="533.23" y="177.5" width="31.91" height="21.99"/><rect id="ad5a043d-52f1-4931-b771-e4991ef7f7f7" class="cls-3" x="625.61" y="23.41" width="31.91" height="21.99"/><rect id="e5d95e83-bdd9-4322-95a9-5a9c4b449a8f" class="cls-2" x="476.82" y="23.41" width="31.91" height="21.99"/><path class="cls-1" d="M449.51,21.58a3,3,0,0,0-3-3H397.84v-2h48.67a5,5,0,0,1,5,5V70.94h-2Z"/><circle id="b3140cf1-cdb8-48ff-81af-ce41ed4f5739" class="cls-5" cx="395.55" cy="17.2" r="17.2"/><path class="cls-6" d="M307.91,390.21c30.49-3.62,32,27.54,32,27.54"/><circle class="cls-6" cx="348.5" cy="372.84" r="15.26"/><circle class="cls-1" cx="196.99" cy="246.75" r="123.3"/><path class="cls-7" d="M275.8,255.46a36.26,36.26,0,1,0-51.27,1.19,32.07,32.07,0,0,1,4.12-4.12,32.62,32.62,0,0,1,46,4.12C275,256.26,275.41,255.87,275.8,255.46Z"/><path class="cls-7" d="M177.89,255.46h0a36.26,36.26,0,1,0-51.27,1.19,32.07,32.07,0,0,1,4.12-4.12,32.62,32.62,0,0,1,46,4.12C177.1,256.26,177.5,255.87,177.89,255.46Z"/><circle class="cls-1" cx="261.94" cy="218.07" r="12.47"/><circle class="cls-1" cx="164.03" cy="218.07" r="12.47"/><circle class="cls-3" cx="285.83" cy="277.58" r="14.51"/><circle class="cls-3" cx="119.02" cy="277.58" r="14.51"/><polygon class="cls-3" points="195.18 277.58 213.31 295.71 202.43 248.56 195.18 277.58"/><polygon class="cls-1" points="140.56 429.88 159.02 414.39 159.93 381.94 160.62 357.3 164.45 357.41 163.77 381.94 162.86 414.42 186.39 429.88 179.41 429.88 162.73 418.92 162.43 429.88 158.59 429.88 158.88 419.52 146.53 429.88 140.56 429.88"/><polygon class="cls-1" points="198.59 429.88 217.05 414.39 217.95 381.94 218.64 357.3 222.48 357.41 221.79 381.94 220.88 414.42 244.41 429.88 237.43 429.88 220.75 418.92 220.44 429.88 216.62 429.88 216.91 419.52 204.55 429.88 198.59 429.88"/><path class="cls-1" d="M184.3,132.52c0,10,4.87,18.13,10.87,18.13,4.32,0,8-4.22,9.77-10.29,2,4,5,6.67,8.37,6.67,4.49,0,8.35-4.55,10-11a6.47,6.47,0,0,0,.88.15c6,0,10.87-8.12,10.87-18.13s-4.87-18.14-10.87-18.14c-4.5,0-8.35,4.55-10,11a6.6,6.6,0,0,0-.87-.15c-4.32,0-8,4.22-9.77,10.29-2-4-5-6.66-8.37-6.66C189.17,114.39,184.3,122.51,184.3,132.52Z"/><path class="cls-1" d="M302.73,193.25a17.43,17.43,0,0,0,15,28,31.12,31.12,0,0,0,8.43-2.1,137.35,137.35,0,0,0,62.08-45.68c3-3.91,5.67-9.71,2.31-13.3-3-3.19-8.32-1.77-12.1.42s-7.88,5-12.12,4a17.62,17.62,0,0,0,11.92-14.52,8.51,8.51,0,0,0-.15-3.1c-1-3.57-5.47-5.19-9.08-4.32s-6.5,3.48-9.21,6a8.66,8.66,0,0,0-1.53-15.71c-3.29-1.11-7-.13-9.9,1.76s-5.17,4.6-7.39,7.26l-44,52.88"/><path class="cls-1" d="M20.83,309.05c3.62,2.46,8.51-.11,11.72-3.07s6.58-6.66,11-6.55a17.62,17.62,0,0,0-8.44,16.79,8.45,8.45,0,0,0,.83,3c1.74,3.27,6.48,3.85,9.8,2.22a16.8,16.8,0,0,0,5.7-5.13,8.6,8.6,0,0,0,6.92,12.23c3.44.36,6.84-1.41,9.26-3.89s4-5.62,5.62-8.71q15.66-30.63,31.33-61.26l-5.29,2.8a17.43,17.43,0,0,0-20.78-24,30.87,30.87,0,0,0-7.76,3.9,137.32,137.32,0,0,0-50.52,58.21C18.12,300,16.77,306.29,20.83,309.05Z"/><path class="cls-8" d="M0,429.88a1,1,0,0,1,1-1H382a1,1,0,0,1,0,2H1A1,1,0,0,1,0,429.88Z"/></g></g></svg>