<svg xmlns="http://www.w3.org/2000/svg" viewBox="0 0 292.01 260"><defs><style>.cls-1{fill:#fdaf42;}.cls-2,.cls-3{fill:none;stroke-linecap:round;stroke-miterlimit:10;stroke-width:16px;}.cls-2{stroke:#fff;}.cls-3{stroke:#fdaf42;}</style></defs><g id="Layer_2" data-name="Layer 2"><g id="Layer_1-2" data-name="Layer 1"><path d="M86.27,258A24.6,24.6,0,0,1,65,245.73L5.29,142.27a24.61,24.61,0,0,1,0-24.54L65,14.27A24.6,24.6,0,0,1,86.27,2H205.74A24.6,24.6,0,0,1,227,14.27l59.73,103.46a24.61,24.61,0,0,1,0,24.54L227,245.73A24.6,24.6,0,0,1,205.74,258Z"/><path class="cls-1" d="M205.74,4a22.61,22.61,0,0,1,19.52,11.27L285,118.73a22.62,22.62,0,0,1,0,22.54L225.26,244.73A22.61,22.61,0,0,1,205.74,256H86.27a22.62,22.62,0,0,1-19.52-11.27L7,141.27a22.62,22.62,0,0,1,0-22.54L66.75,15.27A22.62,22.62,0,0,1,86.27,4H205.74m0-4H86.27a26.54,26.54,0,0,0-23,13.27L3.56,116.73a26.5,26.5,0,0,0,0,26.54L63.29,246.73a26.54,26.54,0,0,0,23,13.27H205.74a26.54,26.54,0,0,0,23-13.27l59.74-103.46a26.54,26.54,0,0,0,0-26.54L228.72,13.27A26.54,26.54,0,0,0,205.74,0Z"/><polyline class="cls-2" points="146.01 95.5 94.95 146.86 146.01 198.22"/><polyline class="cls-3" points="143.95 151.22 195.01 99.86 143.95 48.5"/></g></g></svg>