<svg xmlns="http://www.w3.org/2000/svg" viewBox="0 0 836.72 757.63"><defs><style>.cls-1{fill:#3f3d56;}.cls-2{fill:#f2f2f2;}.cls-3{opacity:0.1;}.cls-3,.cls-8{isolation:isolate;}.cls-4{fill:#ccc;}.cls-5{fill:#fff;}.cls-6{fill:#e6e6e6;}.cls-7{fill:#fdaf42;}.cls-8{opacity:0.3;}.cls-9{fill:#3e3f40;}</style></defs><g id="Layer_2" data-name="Layer 2"><g id="Layer_1-2" data-name="Layer 1"><path class="cls-1" d="M680.4,304.81C635.86,271.51,566.09,240,489,218.41c-70.2-19.68-138.66-29.18-192.81-26.75l-.28-6.3c54.79-2.45,124,7.13,194.8,27C568.51,234.15,639,266,684.18,299.76Z"/><path class="cls-2" d="M675.78,330.46a209.83,209.83,0,0,1-18.15,85.63c-1,2.26-2,4.5-3.14,6.71-51,104.49-177.07,147.84-281.56,96.82A210.53,210.53,0,0,1,254.77,330.46q0-7.31.49-14.5.24-3.66.62-7.27c12-115.64,115.53-199.64,231.17-187.6A210.5,210.5,0,0,1,675.78,330.46Z"/><path class="cls-3" d="M657.63,416.09c-1,2.26-2,4.5-3.14,6.71q-9.22,1-19.42,1.46c-5.63.25-11.42.37-17.34.37-51.69,0-113.9-9.54-177.46-27.35-70.83-19.85-134.91-47.62-180.44-78.19-1.55-1-3.07-2.09-4.57-3.13q.24-3.66.62-7.27,3.62,2.58,7.46,5.16c45,30.21,108.43,57.69,178.63,77.36,63,17.66,124.63,27.12,175.73,27.12q8.76,0,17.09-.37Q646.91,417.41,657.63,416.09Z"/><path class="cls-1" d="M617.73,419.59c-51.69,0-113.91-9.54-177.46-27.35-70.83-19.85-134.91-47.62-180.44-78.2-46.48-31.21-68.27-62-61.37-86.59S240,187.87,295.9,185.36l.28,6.3c-26.12,1.17-47.4,5.05-63.26,11.54s-25.38,15.2-28.39,26,.61,23.17,10.76,36.92,26.35,28.17,48.06,42.74c45,30.21,108.42,57.68,178.62,77.36,63,17.66,124.63,27.12,175.73,27.12q8.76,0,17.08-.37c26.12-1.17,47.41-5.05,63.27-11.54s25.37-15.2,28.39-25.95c5.41-19.3-10.94-44.38-46-70.62l3.78-5.05c18.06,13.51,31.43,26.82,39.73,39.56,8.91,13.66,11.8,26.39,8.6,37.81-6.91,24.63-41.51,39.58-97.44,42.09C629.44,419.47,623.65,419.59,617.73,419.59Z"/><circle class="cls-2" cx="470.84" cy="79.58" r="2.41"/><circle class="cls-4" cx="150.82" cy="182.51" r="4.15"/><circle class="cls-4" cx="141.98" cy="344.93" r="8.2"/><circle class="cls-4" cx="634.07" cy="94.05" r="5.46"/><circle class="cls-4" cx="827.85" cy="320.81" r="8.87"/><circle class="cls-4" cx="758.48" cy="179.13" r="3.81"/><circle class="cls-4" cx="296.36" cy="130.23" r="5.94"/><circle class="cls-4" cx="745.16" cy="302.83" r="3.81"/><circle class="cls-4" cx="4.74" cy="316.83" r="4.74"/><circle class="cls-4" cx="76.7" cy="238.87" r="5.13"/><polygon class="cls-4" points="406.09 10.12 395.97 10.12 395.97 0 390.54 0 390.54 10.12 380.41 10.12 380.41 15.56 390.54 15.56 390.54 25.68 395.97 25.68 395.97 15.56 406.09 15.56 406.09 10.12"/><polygon class="cls-4" points="640.92 557.9 634.56 557.9 634.56 551.54 631.15 551.54 631.15 557.9 624.8 557.9 624.8 561.31 631.15 561.31 631.15 567.66 634.56 567.66 634.56 561.31 640.92 561.31 640.92 557.9"/><polygon class="cls-4" points="787.64 525.36 782.89 525.36 782.89 520.61 780.34 520.61 780.34 525.36 775.58 525.36 775.58 527.91 780.34 527.91 780.34 532.66 782.89 532.66 782.89 527.91 787.64 527.91 787.64 525.36"/><circle class="cls-3" cx="332.54" cy="295.08" r="17.69"/><circle class="cls-3" cx="527.93" cy="472.78" r="17.69"/><circle class="cls-3" cx="468.43" cy="322.42" r="17.69"/><circle class="cls-3" cx="341.39" cy="419.71" r="17.69"/><circle class="cls-3" cx="563.31" cy="227.54" r="17.69"/><circle class="cls-3" cx="622.01" cy="347.35" r="17.69"/><circle class="cls-5" cx="229.67" cy="387.59" r="23.32"/><ellipse class="cls-6" cx="744.54" cy="548.71" rx="10.69" ry="34.05" transform="translate(-178.58 605.96) rotate(-39.94)"/><circle class="cls-6" cx="672.11" cy="536.89" r="68.1"/><rect class="cls-6" x="680.25" y="590.33" width="20.69" height="37.07"/><rect class="cls-6" x="638.87" y="590.33" width="20.69" height="37.07"/><ellipse class="cls-6" cx="683.69" cy="627.83" rx="17.24" ry="6.47"/><ellipse class="cls-6" cx="642.32" cy="626.97" rx="17.24" ry="6.47"/><path class="cls-7" d="M650.73,451.29c6.08-24.49,32.92-38.9,59.95-32.19s44,32,37.93,56.49-26.25,24.57-53.28,17.86S644.65,475.77,650.73,451.29Z"/><ellipse class="cls-6" cx="595.41" cy="505.29" rx="10.69" ry="34.05" transform="translate(-116.29 826.73) rotate(-64.63)"/><circle class="cls-5" cx="661.93" cy="522.52" r="22.7"/><circle class="cls-1" cx="652.6" cy="514.38" r="7.57"/><path class="cls-5" d="M676.17,569.82a15.13,15.13,0,1,1-29.78,5.42h0v0c-1.49-8.22,4.87-11.13,13.1-12.62S674.68,561.6,676.17,569.82Z"/><path class="cls-7" d="M531.86,392.22A47.27,47.27,0,1,0,534.54,462l58,48.93a4.36,4.36,0,0,0,5.63-6.66h0l-58-48.93A47.27,47.27,0,0,0,531.86,392.22Zm-3.74,58.45a35.42,35.42,0,1,1-4.22-49.92h0a35.42,35.42,0,0,1,4.22,49.92Z"/><path class="cls-8" d="M478.21,454.89a35.42,35.42,0,0,1-6-47.61c-.67.68-1.33,1.4-2,2.14a35.42,35.42,0,1,0,54.1,45.73l0,0c.63-.74,1.22-1.51,1.78-2.29A35.43,35.43,0,0,1,478.21,454.89Z"/><ellipse class="cls-6" cx="224.01" cy="485.46" rx="34.05" ry="10.69" transform="translate(-309.44 521.38) rotate(-69.08)"/><circle class="cls-6" cx="161.07" cy="536.89" r="68.1"/><rect class="cls-6" x="130.03" y="590.33" width="20.69" height="37.07"/><rect class="cls-6" x="171.41" y="590.33" width="20.69" height="37.07"/><ellipse class="cls-6" cx="147.27" cy="627.83" rx="17.24" ry="6.47"/><ellipse class="cls-6" cx="188.65" cy="626.97" rx="17.24" ry="6.47"/><circle class="cls-5" cx="162.79" cy="519.65" r="23.27"/><circle class="cls-1" cx="162.79" cy="519.65" r="7.76"/><path class="cls-7" d="M95,473.56c-5.5-24.63,12.08-49.51,39.26-55.58s53.67,9,59.17,33.6-12.52,33.71-39.7,39.78S100.51,498.18,95,473.56Z"/><ellipse class="cls-6" cx="84.36" cy="505.29" rx="10.69" ry="34.05" transform="translate(-408.33 364.98) rotate(-64.63)"/><path class="cls-5" d="M127.62,561.46c0,6.66,17.16,19.82,36.2,19.82s36.9-18.76,36.9-25.43-17.86,1.3-36.9,1.3S127.62,554.79,127.62,561.46Z"/><circle class="cls-6" cx="381.99" cy="660.22" r="68.1"/><rect class="cls-6" x="350.96" y="713.67" width="20.69" height="37.07"/><rect class="cls-6" x="392.34" y="713.67" width="20.69" height="37.07"/><ellipse class="cls-6" cx="368.2" cy="751.16" rx="17.24" ry="6.47"/><ellipse class="cls-6" cx="409.58" cy="750.3" rx="17.24" ry="6.47"/><path class="cls-7" d="M315.93,596.89c-5.5-24.62,12.08-49.51,39.26-55.58s53.68,9,59.17,33.6-12.51,33.71-39.69,39.78S321.43,621.52,315.93,596.89Z"/><path class="cls-9" d="M382.26,648.42s4.94-21.73-4.44-20.74-22.23,1.48-25.69,1.48-23.22-2.47-26.18,10.37-6.92,28.65,1.48,38.53c0,0,3,43.47,14.33,46.44s41.49,6.42,52.36-7.91a36.81,36.81,0,0,0,6.42-30.13H395.6Z"/><path class="cls-3" d="M332.37,681.52s8.4,4,25.69,1.48v7.41l-25.69-2Z"/><path class="cls-9" d="M395.13,706.29l-5.59-3,24.87-47.06A11.76,11.76,0,0,0,404.34,639l-26.1-.7.17-6.32,26.1.7A18.07,18.07,0,0,1,420,659.22Z"/><path class="cls-9" d="M335,706.29l-24.87-47.07a18.07,18.07,0,0,1,15.49-26.51l26.1-.7.17,6.32-26.1.7a11.75,11.75,0,0,0-10.07,17.24l24.87,47.06Z"/><ellipse class="cls-6" cx="435.92" cy="660.03" rx="11.86" ry="37.78" transform="translate(-351.34 736.73) rotate(-62.12)"/></g></g></svg>